<svg width="568" height="165" fill="none" xmlns="http://www.w3.org/2000/svg"><path d="M479.779 163.516c-3.015 0-5.799-2.783-5.799-5.798V43.373c0-11.83 1.392-17.628 4.175-22.73C486.737 4.87 504.132 0 520.832 0s34.095 4.87 42.677 20.642c2.783 5.103 4.174 10.902 4.174 22.73v114.346c0 3.015-2.783 5.798-5.798 5.798h-22.962c-3.015 0-5.798-2.783-5.798-5.798V93.239c0-4.175-4.871-7.886-12.293-7.886-7.422 0-12.293 3.711-12.293 7.886v64.479c0 3.015-2.783 5.798-5.798 5.798h-22.962Zm41.053-84.193c7.422 0 12.293-3.711 12.293-7.886v-57.52c0-4.176-4.871-7.887-12.293-7.887-7.422 0-12.293 3.711-12.293 7.886v57.521c0 4.175 4.871 7.886 12.293 7.886ZM361.998 163.516c-3.016 0-5.799-3.015-5.799-5.798V6.958c0-3.015 2.783-5.798 5.799-5.798h40.589c20.642 0 35.254 7.885 42.213 20.642 2.783 5.103 4.175 10.901 4.175 22.73v75.612c0 11.829-1.392 17.627-4.175 22.73-6.959 12.756-21.571 20.642-42.213 20.642h-40.589Zm40.589-6.03c7.422 0 11.829-3.711 11.829-7.886V15.076c0-4.175-4.407-7.886-11.829-7.886-7.422 0-11.829 3.711-11.829 7.886V149.6c0 4.175 4.407 7.886 11.829 7.886ZM243.31 163.516c-3.015 0-5.798-2.783-5.798-5.798V6.958c0-3.015 2.783-5.798 5.798-5.798h40.125c16.468 0 29.457 4.638 37.574 12.756 6.263 6.262 10.206 14.612 10.206 30.384 0 19.947-10.206 34.559-29.688 38.038 18.091 3.479 29.688 18.091 29.688 35.718v39.662c0 3.015-2.784 5.798-6.031 5.798h-22.73c-3.015 0-5.798-2.783-5.798-5.798v-63.32c0-5.334-4.871-9.045-12.293-9.045-7.422 0-12.293 3.711-12.293 9.046v63.319c0 3.015-2.783 5.798-5.798 5.798H243.31Zm41.053-84.193c7.422 0 12.293-3.711 12.293-9.046V16.236c0-5.335-4.871-9.046-12.293-9.046-7.422 0-12.293 3.711-12.293 9.045v54.042c0 5.335 4.871 9.046 12.293 9.046ZM123.716 163.516c-3.015 0-5.798-2.783-5.798-5.798V43.373c0-11.83 1.392-17.628 4.175-22.73C130.675 4.87 148.07 0 164.769 0c16.7 0 34.095 4.87 42.677 20.642 2.783 5.103 4.175 10.902 4.175 22.73v114.346c0 3.015-2.783 5.798-5.798 5.798h-22.962c-3.016 0-5.799-2.783-5.799-5.798V93.239c0-4.175-4.871-7.886-12.293-7.886-7.422 0-12.292 3.711-12.292 7.886v64.479c0 3.015-2.784 5.798-5.799 5.798h-22.962Zm41.053-84.193c7.422 0 12.293-3.711 12.293-7.886v-57.52c0-4.176-4.871-7.887-12.293-7.887-7.422 0-12.292 3.711-12.292 7.886v57.521c0 4.175 4.87 7.886 12.292 7.886ZM47.168 164.676c-21.57 0-35.487-7.654-42.677-20.642C1.708 138.931.316 133.133.316 119.68V96.95c0-1.392.928-2.32 2.32-2.32 18.091 0 32.24 14.381 32.24 34.328V149.6c0 5.103 4.87 9.046 12.292 9.046s12.293-3.943 12.293-9.046V97.182c0-9.277-6.495-10.437-15.54-11.597-13.22-1.623-24.122-4.639-31.776-12.292-7.19-7.19-10.9-17.396-10.9-30.384C1.244 13.684 20.03 0 47.167 0 67.81 0 81.727 7.654 88.917 20.642c2.783 5.103 4.175 10.902 4.175 24.354v21.57c0 1.392-.928 2.32-2.32 2.32-18.09 0-32.24-14.38-32.24-34.327V15.076c0-5.335-4.87-9.046-11.364-9.046-6.494 0-11.365 3.711-11.365 9.046v52.418c0 9.278 6.494 10.437 15.54 11.597 13.22 1.624 24.121 4.639 31.775 12.293 7.19 7.19 10.901 17.395 10.901 30.384 0 29.224-18.787 42.908-46.851 42.908Z" fill="#fff"/></svg>